<?xml version="1.0" encoding="UTF-8"?>
<svg version="1.1" xmlns="http://www.w3.org/2000/svg" width="64" height="64">
    <path d="M0 0 C0.98033203 -0.01224609 1.96066406 -0.02449219 2.97070312 -0.03710938 C3.90720703 -0.03904297 4.84371094 -0.04097656 5.80859375 -0.04296875 C6.67154053 -0.04707764 7.5344873 -0.05118652 8.42358398 -0.05541992 C10.5625 0.1875 10.5625 0.1875 12.5625 2.1875 C12.82128906 4.21875 12.82128906 4.21875 12.828125 6.6875 C12.83199219 8.0178125 12.83199219 8.0178125 12.8359375 9.375 C12.82820313 10.303125 12.82046875 11.23125 12.8125 12.1875 C12.82023437 13.115625 12.82796875 14.04375 12.8359375 15 C12.83335938 15.886875 12.83078125 16.77375 12.828125 17.6875 C12.82586914 18.5021875 12.82361328 19.316875 12.82128906 20.15625 C12.5625 22.1875 12.5625 22.1875 10.5625 24.1875 C8.53125 24.44628906 8.53125 24.44628906 6.0625 24.453125 C5.175625 24.45570312 4.28875 24.45828125 3.375 24.4609375 C2.446875 24.45320313 1.51875 24.44546875 0.5625 24.4375 C-0.8296875 24.44910156 -0.8296875 24.44910156 -2.25 24.4609375 C-3.5803125 24.45707031 -3.5803125 24.45707031 -4.9375 24.453125 C-5.7521875 24.45086914 -6.566875 24.44861328 -7.40625 24.44628906 C-9.4375 24.1875 -9.4375 24.1875 -11.4375 22.1875 C-11.68041992 20.04858398 -11.68041992 20.04858398 -11.66796875 17.43359375 C-11.66603516 16.49708984 -11.66410156 15.56058594 -11.66210938 14.59570312 C-11.64986328 13.61537109 -11.63761719 12.63503906 -11.625 11.625 C-11.62435547 10.64080078 -11.62371094 9.65660156 -11.62304688 8.64257812 C-11.56199099 -1.20098683 -9.31492716 0.00610015 0 0 Z " fill="#FFC00F" transform="translate(45.4375,33.8125)"/>
    <path d="M0 0 C1.29442017 0.00616333 1.29442017 0.00616333 2.61499023 0.01245117 C4.01974609 0.01535156 4.01974609 0.01535156 5.45288086 0.01831055 C6.43321289 0.03055664 7.41354492 0.04280273 8.42358398 0.05541992 C9.4077832 0.05606445 10.39198242 0.05670898 11.40600586 0.05737305 C18.72090866 0.1027446 18.72090866 0.1027446 19.86108398 1.24291992 C20.11207322 4.71500799 20.04630494 8.20032612 20.04858398 11.68041992 C20.06083008 12.66075195 20.07307617 13.64108398 20.08569336 14.65112305 C20.08859375 16.05587891 20.08859375 16.05587891 20.09155273 17.48901367 C20.09566162 18.35196045 20.09977051 19.21490723 20.10400391 20.10400391 C19.86108398 22.24291992 19.86108398 22.24291992 17.86108398 24.24291992 C15.82983398 24.50170898 15.82983398 24.50170898 13.36108398 24.50854492 C12.47420898 24.51112305 11.58733398 24.51370117 10.67358398 24.51635742 C9.74545898 24.50862305 8.81733398 24.50088867 7.86108398 24.49291992 C6.46889648 24.50452148 6.46889648 24.50452148 5.04858398 24.51635742 C3.71827148 24.51249023 3.71827148 24.51249023 2.36108398 24.50854492 C1.54639648 24.50628906 0.73170898 24.5040332 -0.10766602 24.50170898 C-2.13891602 24.24291992 -2.13891602 24.24291992 -4.13891602 22.24291992 C-4.39770508 20.21166992 -4.39770508 20.21166992 -4.40454102 17.74291992 C-4.40711914 16.85604492 -4.40969727 15.96916992 -4.41235352 15.05541992 C-4.40075195 13.66323242 -4.40075195 13.66323242 -4.38891602 12.24291992 C-4.39665039 11.31479492 -4.40438477 10.38666992 -4.41235352 9.43041992 C-4.40977539 8.54354492 -4.40719727 7.65666992 -4.40454102 6.74291992 C-4.40228516 5.92823242 -4.4000293 5.11354492 -4.39770508 4.27416992 C-4.01750071 1.28992433 -2.96903692 0.33719801 0 0 Z " fill="#E43933" transform="translate(10.138916015625,33.757080078125)"/>
    <path d="M0 0 C0.886875 -0.00257813 1.77375 -0.00515625 2.6875 -0.0078125 C4.0796875 0.00378906 4.0796875 0.00378906 5.5 0.015625 C6.428125 0.00789062 7.35625 0.00015625 8.3125 -0.0078125 C9.6428125 -0.00394531 9.6428125 -0.00394531 11 0 C11.8146875 0.00225586 12.629375 0.00451172 13.46875 0.00683594 C15.5 0.265625 15.5 0.265625 17.5 2.265625 C17.75878906 4.296875 17.75878906 4.296875 17.765625 6.765625 C17.76949219 8.0959375 17.76949219 8.0959375 17.7734375 9.453125 C17.76570313 10.38125 17.75796875 11.309375 17.75 12.265625 C17.75773437 13.19375 17.76546875 14.121875 17.7734375 15.078125 C17.77085938 15.965 17.76828125 16.851875 17.765625 17.765625 C17.76336914 18.5803125 17.76111328 19.395 17.75878906 20.234375 C17.5 22.265625 17.5 22.265625 15.5 24.265625 C13.36108398 24.50854492 13.36108398 24.50854492 10.74609375 24.49609375 C9.34133789 24.49319336 9.34133789 24.49319336 7.90820312 24.49023438 C6.43770508 24.47186523 6.43770508 24.47186523 4.9375 24.453125 C3.95330078 24.45248047 2.96910156 24.45183594 1.95507812 24.45117188 C-5.35982468 24.40580032 -5.35982468 24.40580032 -6.5 23.265625 C-6.75098924 19.79353693 -6.68522096 16.3082188 -6.6875 12.828125 C-6.69974609 11.84779297 -6.71199219 10.86746094 -6.72460938 9.85742188 C-6.72750977 8.45266602 -6.72750977 8.45266602 -6.73046875 7.01953125 C-6.73457764 6.15658447 -6.73868652 5.2936377 -6.74291992 4.40454102 C-6.25138224 0.07653938 -3.74071804 0.010358 0 0 Z " fill="#7DB345" transform="translate(40.5,5.734375)"/>
    <path d="M0 0 C0.886875 -0.00257813 1.77375 -0.00515625 2.6875 -0.0078125 C4.0796875 0.00378906 4.0796875 0.00378906 5.5 0.015625 C6.428125 0.00789062 7.35625 0.00015625 8.3125 -0.0078125 C9.6428125 -0.00394531 9.6428125 -0.00394531 11 0 C11.8146875 0.00225586 12.629375 0.00451172 13.46875 0.00683594 C15.5 0.265625 15.5 0.265625 17.5 2.265625 C17.74291992 4.40454102 17.74291992 4.40454102 17.73046875 7.01953125 C17.72853516 7.95603516 17.72660156 8.89253906 17.72460938 9.85742188 C17.70624023 11.32791992 17.70624023 11.32791992 17.6875 12.828125 C17.68685547 13.81232422 17.68621094 14.79652344 17.68554688 15.81054688 C17.64017532 23.12544968 17.64017532 23.12544968 16.5 24.265625 C13.02791193 24.51661424 9.5425938 24.45084596 6.0625 24.453125 C5.08216797 24.46537109 4.10183594 24.47761719 3.09179688 24.49023438 C2.15529297 24.49216797 1.21878906 24.49410156 0.25390625 24.49609375 C-0.60904053 24.50020264 -1.4719873 24.50431152 -2.36108398 24.50854492 C-4.5 24.265625 -4.5 24.265625 -6.5 22.265625 C-6.75878906 20.234375 -6.75878906 20.234375 -6.765625 17.765625 C-6.76820313 16.87875 -6.77078125 15.991875 -6.7734375 15.078125 C-6.76183594 13.6859375 -6.76183594 13.6859375 -6.75 12.265625 C-6.75773438 11.3375 -6.76546875 10.409375 -6.7734375 9.453125 C-6.77085937 8.56625 -6.76828125 7.679375 -6.765625 6.765625 C-6.76336914 5.9509375 -6.76111328 5.13625 -6.75878906 4.296875 C-6.21708282 0.04499205 -3.6638033 0.01014502 0 0 Z " fill="#2DABE1" transform="translate(12.5,5.734375)"/>
    <path d="M0 0 C2.47923801 -0.02685095 4.9581884 -0.04676547 7.4375 -0.0625 C8.14455078 -0.07087891 8.85160156 -0.07925781 9.58007812 -0.08789062 C11.38693559 -0.09653588 13.19387603 -0.05220011 15 0 C16 1 16 1 16.09765625 4.37890625 C16.09098369 5.77347077 16.07902532 7.16801743 16.0625 8.5625 C16.05798828 9.27341797 16.05347656 9.98433594 16.04882812 10.71679688 C16.03700864 12.47790013 16.01907263 14.23896036 16 16 C13.52076199 16.02685095 11.0418116 16.04676547 8.5625 16.0625 C7.85544922 16.07087891 7.14839844 16.07925781 6.41992188 16.08789062 C4.61306441 16.09653588 2.80612397 16.05220011 1 16 C0 15 0 15 -0.09765625 11.62109375 C-0.09098369 10.22652923 -0.07902532 8.83198257 -0.0625 7.4375 C-0.05798828 6.72658203 -0.05347656 6.01566406 -0.04882812 5.28320312 C-0.03700864 3.52209987 -0.01907263 1.76103964 0 0 Z " fill="#DDA2A6" transform="translate(10,38)"/>
    <path d="M0 0 C4.95 0 9.9 0 15 0 C15 5.28 15 10.56 15 16 C10.05 16 5.1 16 0 16 C0 10.72 0 5.44 0 0 Z " fill="#FBE39C" transform="translate(38,38)"/>
    <path d="M0 0 C5.28 0 10.56 0 16 0 C16 4.95 16 9.9 16 15 C10.72 15 5.44 15 0 15 C0 10.05 0 5.1 0 0 Z " fill="#96C7DD" transform="translate(10,11)"/>
    <path d="M0 0 C4.95 0 9.9 0 15 0 C15 4.95 15 9.9 15 15 C10.05 15 5.1 15 0 15 C0 10.05 0 5.1 0 0 Z " fill="#C1D1B4" transform="translate(38,11)"/>
    <path d="M0 0 C3.96 0 7.92 0 12 0 C12 3.96 12 7.92 12 12 C11.34 12 10.68 12 10 12 C10 10.68 10 9.36 10 8 C6.7 8 3.4 8 0 8 C0 7.34 0 6.68 0 6 C1.65 6 3.3 6 5 6 C5 5.01 5 4.02 5 3 C3.35 3 1.7 3 0 3 C0 2.01 0 1.02 0 0 Z " fill="#DDEFF9" transform="translate(13,11)"/>
    <path d="M0 0 C3.96 0 7.92 0 12 0 C12 3.96 12 7.92 12 12 C11.01 12 10.02 12 9 12 C9 10.68 9 9.36 9 8 C6.03 8 3.06 8 0 8 C0 7.34 0 6.68 0 6 C1.65 6 3.3 6 5 6 C5 4.68 5 3.36 5 2 C3.35 2 1.7 2 0 2 C0 1.34 0 0.68 0 0 Z " fill="#FCF5DE" transform="translate(41,39)"/>
    <path d="M0 0 C3.96 0 7.92 0 12 0 C12 3.96 12 7.92 12 12 C9.69 12 7.38 12 5 12 C5 10.68 5 9.36 5 8 C3.35 8 1.7 8 0 8 C0 7.34 0 6.68 0 6 C2.97 6 5.94 6 9 6 C9 4.68 9 3.36 9 2 C6.03 2 3.06 2 0 2 C0 1.34 0 0.68 0 0 Z " fill="#F7E5E8" transform="translate(13,39)"/>
    <path d="M0 0 C3.96 0 7.92 0 12 0 C12 3.96 12 7.92 12 12 C9.69 12 7.38 12 5 12 C5 10.68 5 9.36 5 8 C3.35 8 1.7 8 0 8 C0 7.34 0 6.68 0 6 C2.97 6 5.94 6 9 6 C9 4.68 9 3.36 9 2 C6.03 2 3.06 2 0 2 C0 1.34 0 0.68 0 0 Z " fill="#EEF4E7" transform="translate(41,11)"/>
    <path d="M0 0 C2.97 0 5.94 0 9 0 C9 0.99 9 1.98 9 3 C6.03 3 3.06 3 0 3 C0 2.01 0 1.02 0 0 Z " fill="#43555C" transform="translate(41,47)"/>
    <path d="M0 0 C2.97 0 5.94 0 9 0 C9 0.99 9 1.98 9 3 C6.03 3 3.06 3 0 3 C0 2.01 0 1.02 0 0 Z " fill="#43545C" transform="translate(41,14)"/>
    <path d="M0 0 C2.64 0 5.28 0 8 0 C8 0.99 8 1.98 8 3 C5.36 3 2.72 3 0 3 C0 2.01 0 1.02 0 0 Z " fill="#45555E" transform="translate(14,42)"/>
    <path d="M0 0 C2.64 0 5.28 0 8 0 C8 0.99 8 1.98 8 3 C5.36 3 2.72 3 0 3 C0 2.01 0 1.02 0 0 Z " fill="#43565E" transform="translate(14,19)"/>
    <path d="M0 0 C1.32 0 2.64 0 4 0 C4 1.32 4 2.64 4 4 C2.35 4 0.7 4 -1 4 C-0.67 2.68 -0.34 1.36 0 0 Z " fill="#636E70" transform="translate(42,41)"/>
</svg>
